<?xml version="1.0" standalone="no"?>
<!DOCTYPE svg PUBLIC "-//W3C//DTD SVG 20010904//EN"
 "http://www.w3.org/TR/2001/REC-SVG-20010904/DTD/svg10.dtd">
<svg version="1.0" xmlns="http://www.w3.org/2000/svg"
 width="1036.000000pt" height="1280.000000pt" viewBox="0 0 1036.000000 1280.000000"
 preserveAspectRatio="xMidYMid meet">
<metadata>
Created by potrace 1.15, written by Peter Selinger 2001-2017
</metadata>
<g transform="translate(0.000000,1280.000000) scale(0.100000,-0.100000)"
fill="#000000" stroke="none">
<path d="M5240 12794 c-153 -14 -334 -39 -461 -65 -1528 -306 -2975 -1592
-3889 -3454 -1026 -2093 -1177 -4568 -389 -6387 396 -915 1015 -1618 1759
-1998 155 -78 1422 -649 1545 -695 206 -77 500 -148 735 -177 159 -20 602 -16
765 6 468 64 870 189 1305 406 758 377 1470 996 2070 1795 1323 1765 1933
4190 1584 6290 -264 1587 -1057 2830 -2164 3394 -199 102 -1431 654 -1573 705
-209 76 -442 132 -671 162 -115 15 -517 27 -616 18z m1400 -2802 c299 -308
522 -684 680 -1147 320 -940 287 -2128 -90 -3220 -146 -421 -383 -902 -620
-1255 -556 -831 -1286 -1400 -2039 -1590 -197 -50 -291 -62 -527 -67 l-221 -5
-43 38 c-64 58 -200 213 -281 320 -584 777 -807 1953 -603 3179 325 1957 1654
3589 3109 3819 146 23 144 23 350 25 l190 1 95 -98z"/>
</g>
</svg>
