<?xml version="1.0" standalone="no"?>
<!DOCTYPE svg PUBLIC "-//W3C//DTD SVG 20010904//EN"
 "http://www.w3.org/TR/2001/REC-SVG-20010904/DTD/svg10.dtd">
<svg version="1.0" xmlns="http://www.w3.org/2000/svg"
 width="889.000000pt" height="1280.000000pt" viewBox="0 0 889.000000 1280.000000"
 preserveAspectRatio="xMidYMid meet">
<metadata>
Created by potrace 1.15, written by Peter Selinger 2001-2017
</metadata>
<g transform="translate(0.000000,1280.000000) scale(0.100000,-0.100000)"
fill="#000000" stroke="none">
<path d="M6694 12781 c-190 -52 -372 -191 -504 -386 -26 -38 -449 -761 -940
-1605 -491 -844 -894 -1536 -895 -1538 -1 -2 -281 448 -621 1000 -341 551
-638 1028 -662 1060 -50 66 -135 138 -208 173 -48 25 -1342 436 -1493 476
-329 85 -689 -143 -892 -566 -103 -215 -149 -419 -149 -663 0 -215 35 -383
110 -531 16 -32 538 -884 1160 -1892 640 -1036 1130 -1839 1127 -1848 -2 -9
-572 -991 -1265 -2183 -694 -1192 -1281 -2207 -1305 -2255 -204 -407 -208
-921 -10 -1263 50 -86 181 -217 258 -257 53 -28 1385 -455 1525 -489 263 -64
569 94 775 400 29 45 453 767 940 1606 488 839 888 1526 890 1528 1 1 283
-452 626 -1008 343 -556 647 -1038 674 -1071 65 -77 153 -142 235 -174 79 -30
1416 -450 1480 -464 311 -71 672 172 865 582 98 207 135 364 142 608 7 245
-24 414 -106 577 -16 31 -538 882 -1161 1891 -646 1047 -1130 1841 -1127 1850
2 9 566 981 1252 2161 687 1180 1268 2181 1291 2225 63 118 102 216 134 340
90 352 54 714 -97 975 -50 86 -181 217 -258 257 -34 18 -381 133 -795 263
-705 223 -739 232 -830 236 -73 3 -112 0 -166 -15z"/>
</g>
</svg>
